<svg width="26" height="26" viewBox="0 0 26 26" fill="none" xmlns="http://www.w3.org/2000/svg">
<circle cx="13" cy="13" r="13" fill="white"/>
<path d="M17.9686 7.28662C17.5671 6.83307 16.9039 6.75797 16.4354 7.09521V7.09619C15.9374 7.45365 15.7681 8.11678 16.0467 8.66846L16.0477 8.67139C16.1095 8.79623 16.2104 8.92304 16.3299 9.04248L16.3309 9.04443C17.7674 10.4984 18.3443 12.2737 17.8338 14.3296C17.3464 16.2892 16.0919 17.5914 14.2449 18.1772H14.244C12.4436 18.7454 10.748 18.3828 9.29474 17.1616C8.04155 16.1111 7.39969 14.6962 7.37775 13.0308L7.37872 13.0298C7.36133 11.7846 7.75063 10.6742 8.47443 9.71436L8.62384 9.5249C8.69496 9.43736 8.77457 9.36663 8.83185 9.31592C8.89683 9.25838 8.93474 9.22423 8.96759 9.18799L8.97052 9.18506L9.0838 9.04932C9.3198 8.72685 9.37134 8.36539 9.24493 7.95068L9.24591 7.94971C9.10005 7.48421 8.79098 7.2195 8.32794 7.12549C7.98925 7.05745 7.68254 7.14285 7.38068 7.38525L7.3797 7.38623C6.77752 7.866 6.35471 8.51599 5.96075 9.25146C5.2988 10.4884 5.00019 11.8239 5.04767 13.2446V13.2456C5.10011 14.8698 5.58599 16.3235 6.49884 17.6118L6.68732 17.8677C7.6695 19.1469 8.89599 20.0437 10.3797 20.4966C12.7538 21.2234 14.9593 20.9137 16.9725 19.5044L17.3719 19.2075C18.7439 18.1348 19.6467 16.7089 20.0945 14.9673V14.9663L20.1531 14.7241C20.2797 14.1591 20.3358 13.5797 20.3387 12.9858C20.3079 10.8194 19.5667 8.97619 18.1072 7.44385L18.1082 7.44287C18.065 7.39758 17.9845 7.30414 17.9705 7.28857L17.9686 7.28662Z" fill="#FE724C" stroke="white" stroke-width="0.8"/>
<path d="M13.2485 4.27673C12.8566 4.05151 12.4701 4.05978 12.0854 4.30212L12.0844 4.3031C11.71 4.53721 11.5112 4.87824 11.5112 5.33923V5.34021C11.5053 7.60054 11.5053 8.39456 11.5112 10.6547C11.5134 11.3037 11.9832 11.8165 12.562 11.8744L12.5639 11.8754C13.1378 11.9347 13.6619 11.5787 13.8286 11.0052L13.8569 10.8881L13.8725 10.7601C13.8752 10.7139 13.8754 10.6627 13.8754 10.6039C13.8696 9.49361 13.8696 9.11481 13.8696 8.00525C13.8696 6.87921 13.8725 6.48882 13.8696 5.3656C13.8673 4.8647 13.6557 4.51136 13.2485 4.27771V4.27673Z" fill="#FE724C" stroke="white" stroke-width="0.8"/>
</svg>
